<svg aria-hidden="true" style="position:absolute;width:0;height:0" xmlns="http://www.w3.org/2000/svg" overflow="hidden"><defs><symbol id="icon-basket" viewBox="0 0 32 32"><path d="M31.513 9.179h.002l-4.4 9.778a1.467 1.467 0 01-1.239.862l-12.672.844.732 2.091h13.797a2.934 2.934 0 11-2.933 2.935H11.111a2.933 2.933 0 11-2.933-2.935h2.651L5.183 6.622h-3.36a1.467 1.467 0 010-2.934h4.4c.64 0 1.179.412 1.38.983l.005-.002.853 2.441h21.717a1.466 1.466 0 011.335 2.068zm-22.025.865l2.711 7.746 12.603-.841 3.108-6.905H9.489z"/></symbol><symbol id="icon-search" viewBox="0 0 32 32"><path d="M30.786 26.636a2.933 2.933 0 11-4.149 4.148l-8.597-8.596a11.663 11.663 0 01-5.95 1.634C5.61 23.822.357 18.569.357 12.089S5.61.356 12.09.356s11.733 5.253 11.733 11.733c0 2.174-.603 4.204-1.634 5.95l8.597 8.597zM12.089 3.287c-4.86 0-8.8 3.941-8.8 8.802s3.94 8.8 8.8 8.8c4.86 0 8.8-3.94 8.8-8.8s-3.94-8.802-8.8-8.802z"/></symbol></defs></svg>